<?xml version="1.0" standalone="no"?>
<!DOCTYPE svg PUBLIC "-//W3C//DTD SVG 20010904//EN"
 "http://www.w3.org/TR/2001/REC-SVG-20010904/DTD/svg10.dtd">
<svg version="1.0" xmlns="http://www.w3.org/2000/svg"
 width="855.000000pt" height="855.000000pt" viewBox="0 0 855.000000 855.000000"
 preserveAspectRatio="xMidYMid meet">
<metadata>
Created by potrace 1.11, written by Peter Selinger 2001-2013
</metadata>
<g transform="translate(0.000000,855.000000) scale(0.100000,-0.100000)"
fill="#000000" stroke="none">
<path d="M1426 7334 c-315 -68 -507 -264 -561 -570 -18 -105 -21 -602 -4 -769
21 -207 92 -384 200 -498 32 -33 55 -65 51 -71 -3 -6 -128 -182 -276 -391
-406 -573 -616 -874 -640 -919 -32 -61 -29 -182 5 -256 29 -63 75 -112 128
-140 45 -23 202 -47 369 -56 l122 -7 0 -997 c0 -1105 -1 -1078 66 -1279 106
-318 335 -608 604 -766 172 -101 377 -164 630 -195 55 -6 793 -10 2121 -10
1981 0 2041 1 2187 20 82 11 188 31 234 44 302 88 553 266 763 541 108 142
176 303 217 517 21 110 21 139 25 1084 l4 971 184 6 c214 8 264 21 344 93 92
83 129 202 94 304 -10 32 -88 162 -184 310 -229 351 -665 1025 -702 1083 l-30
47 65 68 c82 84 139 172 177 271 49 128 52 169 49 636 l-3 430 -28 81 c-71
211 -220 334 -462 383 -271 54 -94 51 -2996 50 -2325 -1 -2693 -3 -2753 -15z
m5585 -643 c19 -23 20 -40 17 -370 -3 -340 -3 -347 -27 -394 -12 -26 -39 -60
-59 -75 l-35 -27 -566 -5 c-556 -5 -567 -5 -606 -27 -91 -49 -136 -123 -143
-236 -4 -72 -2 -82 27 -142 18 -36 47 -76 65 -90 71 -54 86 -56 572 -62 l451
-6 334 -505 c184 -277 338 -511 342 -519 7 -12 -7 -13 -95 -8 -581 36 -1012
118 -1533 294 -292 99 -522 218 -764 396 -42 31 -92 45 -156 44 -66 -1 -85 -9
-246 -106 -400 -240 -794 -377 -1124 -390 -203 -9 -323 21 -494 122 -85 50
-115 81 -171 175 -66 109 -123 149 -225 158 -128 10 -266 -48 -400 -169 -241
-218 -553 -377 -860 -438 -113 -22 -245 -37 -245 -27 0 9 153 212 345 456 89
113 201 258 249 322 l88 118 1562 2 1561 3 46 21 c114 53 183 162 183 290 0
60 -5 81 -32 137 -37 74 -72 109 -152 146 l-55 26 -1658 5 -1659 5 -28 31
c-16 19 -32 53 -39 83 -12 57 -14 698 -2 741 4 14 18 30 31 37 20 10 591 12
2753 10 l2729 -2 19 -24z"/>
</g>
</svg>
