<?xml version="1.0" encoding="utf-8"?>
<!-- Generator: Adobe Illustrator 16.0.0, SVG Export Plug-In . SVG Version: 6.00 Build 0)  -->
<!DOCTYPE svg PUBLIC "-//W3C//DTD SVG 1.1//EN" "http://www.w3.org/Graphics/SVG/1.1/DTD/svg11.dtd">
<svg version="1.1" id="Layer_1" xmlns="http://www.w3.org/2000/svg" xmlns:xlink="http://www.w3.org/1999/xlink" x="0px" y="0px"
	 width="600px" height="150px" viewBox="0 0 600 150" enable-background="new 0 0 600 150" xml:space="preserve">
<g>
	<g>
		<g>
			<path fill="#2A78C4" d="M95.013,128.282h6.523c1.003,0,1.888,0.145,2.656,0.435c0.768,0.29,1.411,0.678,1.928,1.164
				s0.909,1.045,1.175,1.676c0.266,0.631,0.399,1.291,0.399,1.98c0,0.557-0.084,1.084-0.252,1.582
				c-0.169,0.497-0.4,0.948-0.694,1.352c-0.293,0.403-0.64,0.753-1.04,1.047c-0.399,0.293-0.831,0.522-1.292,0.688l3.69,6.937
				h-3.925l-3.056-6.066h-2.703v6.066h-3.408V128.282z M104.133,133.655c0-0.337-0.061-0.651-0.182-0.941
				c-0.122-0.289-0.306-0.54-0.552-0.752c-0.247-0.212-0.555-0.376-0.923-0.494c-0.368-0.117-0.795-0.176-1.281-0.176h-2.774v4.75
				h2.774c0.486,0,0.913-0.061,1.281-0.183c0.368-0.121,0.676-0.29,0.923-0.506c0.247-0.215,0.431-0.468,0.552-0.758
				S104.133,133.992,104.133,133.655z"/>
			<path fill="#2A78C4" d="M115.008,139.969c0.055,0.378,0.175,0.725,0.359,1.039c0.185,0.315,0.418,0.585,0.701,0.81
				s0.608,0.399,0.978,0.525c0.369,0.126,0.761,0.188,1.178,0.188c0.479,0,0.997-0.092,1.554-0.276
				c0.558-0.185,1.068-0.453,1.531-0.807l1.563,2.271c-0.588,0.494-1.31,0.894-2.165,1.199s-1.765,0.459-2.729,0.459
				c-0.871,0-1.69-0.149-2.459-0.447c-0.769-0.298-1.441-0.729-2.018-1.293c-0.576-0.564-1.031-1.25-1.365-2.058
				c-0.333-0.807-0.5-1.717-0.5-2.728c0-0.925,0.147-1.787,0.441-2.587c0.294-0.799,0.706-1.493,1.235-2.081
				c0.529-0.588,1.163-1.048,1.9-1.381c0.737-0.333,1.553-0.5,2.447-0.5c0.831,0,1.604,0.151,2.317,0.453
				c0.714,0.302,1.333,0.725,1.859,1.27s0.937,1.197,1.235,1.957c0.298,0.761,0.447,1.6,0.447,2.517v1.47H115.008z M117.641,135.125
				c-0.698,0-1.287,0.232-1.769,0.699c-0.482,0.466-0.762,1.028-0.84,1.687h5.077c-0.016-0.666-0.258-1.229-0.729-1.692
				S118.33,135.125,117.641,135.125z"/>
			<path fill="#2A78C4" d="M129.114,141.118c0.462,0.416,1.015,0.773,1.657,1.071c0.643,0.299,1.293,0.448,1.951,0.448
				c0.478,0,0.854-0.093,1.128-0.276c0.274-0.185,0.412-0.422,0.412-0.712c0-0.493-0.529-0.877-1.587-1.152l-0.917-0.246
				c-0.455-0.11-0.913-0.261-1.375-0.453c-0.462-0.191-0.887-0.444-1.275-0.758c-0.388-0.313-0.701-0.696-0.94-1.146
				c-0.239-0.451-0.358-1.006-0.358-1.664c0-0.524,0.115-1.024,0.347-1.499c0.231-0.474,0.56-0.892,0.987-1.252
				c0.427-0.36,0.946-0.646,1.557-0.858c0.611-0.212,1.292-0.317,2.045-0.317c1.073,0,2.031,0.169,2.874,0.506
				s1.506,0.717,1.992,1.141l-1.692,2.152c-0.4-0.29-0.872-0.539-1.417-0.747s-1.091-0.312-1.639-0.312
				c-0.51,0-0.905,0.093-1.187,0.278c-0.282,0.185-0.423,0.407-0.423,0.668c0,0.275,0.124,0.499,0.37,0.668
				c0.247,0.17,0.605,0.317,1.076,0.443l1.363,0.388c1.3,0.369,2.233,0.866,2.797,1.493c0.564,0.628,0.846,1.419,0.846,2.375
				c0,0.533-0.11,1.041-0.329,1.522c-0.219,0.482-0.541,0.911-0.964,1.288c-0.423,0.376-0.948,0.672-1.575,0.888
				c-0.627,0.215-1.34,0.323-2.139,0.323c-0.611,0-1.186-0.055-1.722-0.165c-0.537-0.109-1.034-0.261-1.492-0.452
				c-0.458-0.192-0.872-0.41-1.24-0.652c-0.368-0.243-0.682-0.486-0.94-0.729L129.114,141.118z"/>
			<path fill="#2A78C4" d="M145.16,139.969c0.055,0.378,0.175,0.725,0.359,1.039c0.185,0.315,0.418,0.585,0.701,0.81
				s0.608,0.399,0.978,0.525c0.369,0.126,0.761,0.188,1.178,0.188c0.479,0,0.997-0.092,1.554-0.276
				c0.558-0.185,1.068-0.453,1.531-0.807l1.563,2.271c-0.588,0.494-1.31,0.894-2.165,1.199s-1.765,0.459-2.729,0.459
				c-0.871,0-1.69-0.149-2.459-0.447c-0.769-0.298-1.441-0.729-2.018-1.293c-0.576-0.564-1.031-1.25-1.365-2.058
				c-0.333-0.807-0.5-1.717-0.5-2.728c0-0.925,0.147-1.787,0.441-2.587c0.294-0.799,0.706-1.493,1.235-2.081
				c0.529-0.588,1.163-1.048,1.9-1.381c0.737-0.333,1.553-0.5,2.447-0.5c0.831,0,1.604,0.151,2.317,0.453
				c0.714,0.302,1.333,0.725,1.859,1.27s0.937,1.197,1.235,1.957c0.298,0.761,0.447,1.6,0.447,2.517v1.47H145.16z M147.792,135.125
				c-0.698,0-1.287,0.232-1.769,0.699c-0.482,0.466-0.762,1.028-0.84,1.687h5.077c-0.016-0.666-0.258-1.229-0.729-1.692
				S148.482,135.125,147.792,135.125z"/>
			<path fill="#2A78C4" d="M165.377,143.954c-0.133,0.149-0.295,0.308-0.487,0.477c-0.192,0.168-0.419,0.321-0.682,0.458
				c-0.263,0.138-0.57,0.253-0.923,0.347c-0.353,0.095-0.748,0.142-1.187,0.142c-0.627,0-1.205-0.101-1.733-0.3
				c-0.529-0.2-0.993-0.48-1.393-0.841c-0.4-0.36-0.713-0.778-0.94-1.252c-0.227-0.475-0.341-0.989-0.341-1.546
				c0-1.012,0.313-1.838,0.94-2.481c0.626-0.643,1.493-1.046,2.597-1.211l3.62-0.528v-0.235c0-0.564-0.172-1.012-0.517-1.341
				s-0.905-0.493-1.681-0.493c-0.321,0-0.646,0.037-0.975,0.111s-0.645,0.159-0.946,0.253s-0.582,0.202-0.84,0.323
				c-0.258,0.121-0.486,0.229-0.682,0.323l-1.269-2.48c0.721-0.4,1.522-0.729,2.403-0.988c0.881-0.258,1.796-0.388,2.744-0.388
				c0.58,0,1.166,0.061,1.757,0.183c0.592,0.121,1.128,0.343,1.61,0.664s0.875,0.758,1.181,1.311s0.458,1.257,0.458,2.11v5.174
				c0,0.368,0.096,0.641,0.288,0.816c0.192,0.177,0.457,0.34,0.793,0.488l-1.469,2.328c-0.595-0.063-1.073-0.218-1.434-0.465
				C165.91,144.665,165.612,144.346,165.377,143.954z M162.432,140.027c-0.401,0.062-0.724,0.202-0.967,0.417
				c-0.244,0.216-0.366,0.508-0.366,0.876c0,0.408,0.149,0.759,0.448,1.053c0.298,0.294,0.739,0.44,1.32,0.44
				c0.613,0,1.097-0.176,1.45-0.529c0.354-0.353,0.53-0.818,0.53-1.398v-1.27L162.432,140.027z"/>
			<path fill="#2A78C4" d="M180.518,135.7h-0.341c-0.462,0-0.903,0.048-1.322,0.142s-0.79,0.265-1.11,0.512
				c-0.322,0.246-0.578,0.586-0.77,1.017c-0.192,0.432-0.288,0.983-0.288,1.658v6.113h-3.244V132.55h3.244v1.423
				c0.133-0.212,0.306-0.416,0.517-0.611c0.212-0.196,0.458-0.371,0.741-0.523c0.282-0.153,0.599-0.276,0.952-0.37
				c0.353-0.095,0.733-0.142,1.14-0.142h0.482V135.7z"/>
			<path fill="#2A78C4" d="M187.878,138.91c0,0.408,0.055,0.817,0.165,1.229c0.11,0.412,0.278,0.782,0.505,1.111
				c0.227,0.329,0.519,0.598,0.875,0.806c0.356,0.207,0.782,0.312,1.275,0.312c0.321,0,0.613-0.043,0.875-0.13
				c0.262-0.086,0.498-0.205,0.705-0.358c0.208-0.152,0.392-0.333,0.552-0.541c0.161-0.207,0.3-0.433,0.417-0.676l2.844,1.47
				c-0.203,0.494-0.484,0.94-0.84,1.34c-0.357,0.4-0.771,0.741-1.24,1.023c-0.471,0.282-0.992,0.5-1.563,0.652
				c-0.572,0.153-1.179,0.229-1.822,0.229c-0.885,0-1.7-0.167-2.444-0.5c-0.745-0.333-1.387-0.789-1.927-1.369
				c-0.541-0.58-0.964-1.269-1.27-2.063c-0.306-0.796-0.458-1.66-0.458-2.593c0-0.925,0.153-1.787,0.458-2.587
				c0.306-0.799,0.729-1.493,1.27-2.081c0.541-0.588,1.183-1.048,1.927-1.381c0.744-0.333,1.559-0.5,2.444-0.5
				c0.643,0,1.25,0.076,1.822,0.229c0.572,0.152,1.093,0.372,1.563,0.658c0.469,0.286,0.883,0.629,1.24,1.028
				c0.355,0.4,0.637,0.847,0.84,1.341l-2.844,1.47c-0.118-0.243-0.257-0.469-0.417-0.676c-0.161-0.208-0.345-0.389-0.552-0.541
				c-0.208-0.153-0.443-0.274-0.705-0.364c-0.263-0.091-0.555-0.136-0.875-0.136c-0.494,0-0.919,0.104-1.275,0.312
				c-0.356,0.208-0.648,0.479-0.875,0.812c-0.228,0.333-0.396,0.707-0.505,1.123c-0.11,0.415-0.165,0.83-0.165,1.246V138.91z"/>
			<path fill="#2A78C4" d="M200.739,128.282h3.244v5.35c0.172-0.173,0.366-0.34,0.581-0.5c0.216-0.161,0.453-0.302,0.711-0.424
				c0.259-0.121,0.547-0.219,0.864-0.294c0.317-0.074,0.668-0.111,1.052-0.111c0.682,0,1.293,0.111,1.834,0.335
				c0.54,0.224,0.996,0.531,1.369,0.923c0.372,0.393,0.655,0.851,0.852,1.376s0.294,1.094,0.294,1.705v8.5h-3.244v-7.324
				c0-0.447-0.051-0.825-0.152-1.135s-0.241-0.561-0.417-0.753c-0.177-0.191-0.385-0.333-0.623-0.423
				c-0.239-0.09-0.5-0.136-0.781-0.136c-0.329,0-0.637,0.06-0.923,0.177s-0.535,0.296-0.746,0.535
				c-0.212,0.239-0.376,0.539-0.494,0.899c-0.117,0.36-0.176,0.783-0.176,1.27v6.89h-3.244V128.282z"/>
			<path fill="#2A78C4" d="M218.818,141.121c0.368,0,0.699,0.07,0.993,0.211c0.294,0.142,0.544,0.334,0.752,0.576
				c0.207,0.243,0.368,0.527,0.481,0.853c0.114,0.325,0.171,0.676,0.171,1.053c0,0.423-0.064,0.859-0.194,1.311
				c-0.129,0.45-0.349,0.87-0.658,1.258s-0.717,0.724-1.222,1.006c-0.506,0.281-1.135,0.466-1.887,0.552l-0.411-1.234l0.329-0.094
				c0.407-0.117,0.742-0.251,1.005-0.399c0.263-0.149,0.472-0.306,0.629-0.471c0.156-0.165,0.271-0.327,0.347-0.488
				c0.074-0.16,0.123-0.312,0.146-0.452c-0.086,0.078-0.195,0.135-0.329,0.17c-0.133,0.036-0.274,0.054-0.423,0.054
				c-0.251,0-0.487-0.042-0.711-0.124s-0.419-0.201-0.588-0.358c-0.168-0.156-0.304-0.353-0.405-0.588s-0.152-0.506-0.152-0.812
				c0-0.282,0.057-0.547,0.17-0.793c0.113-0.247,0.269-0.461,0.464-0.641c0.196-0.181,0.424-0.324,0.682-0.43
				C218.265,141.174,218.536,141.121,218.818,141.121z"/>
			<path fill="#2A78C4" d="M233.796,128.282h6.522c1.003,0,1.889,0.145,2.656,0.435s1.41,0.678,1.928,1.164
				c0.517,0.486,0.908,1.045,1.175,1.676s0.4,1.291,0.4,1.98c0,0.557-0.085,1.084-0.253,1.582c-0.169,0.497-0.399,0.948-0.693,1.352
				s-0.641,0.753-1.04,1.047c-0.399,0.293-0.831,0.522-1.293,0.688l3.69,6.937h-3.926l-3.056-6.066h-2.703v6.066h-3.408V128.282z
				 M242.917,133.655c0-0.337-0.061-0.651-0.182-0.941c-0.122-0.289-0.306-0.54-0.553-0.752s-0.555-0.376-0.923-0.494
				c-0.368-0.117-0.795-0.176-1.281-0.176h-2.773v4.75h2.773c0.486,0,0.913-0.061,1.281-0.183c0.368-0.121,0.676-0.29,0.923-0.506
				c0.247-0.215,0.431-0.468,0.553-0.758C242.856,134.306,242.917,133.992,242.917,133.655z"/>
			<path fill="#2A78C4" d="M253.791,139.969c0.055,0.378,0.175,0.725,0.359,1.039c0.185,0.315,0.418,0.585,0.7,0.81
				s0.608,0.399,0.978,0.525s0.762,0.188,1.178,0.188c0.479,0,0.996-0.092,1.554-0.276s1.067-0.453,1.531-0.807l1.562,2.271
				c-0.588,0.494-1.31,0.894-2.165,1.199c-0.854,0.306-1.765,0.459-2.729,0.459c-0.871,0-1.69-0.149-2.459-0.447
				s-1.441-0.729-2.018-1.293c-0.577-0.564-1.031-1.25-1.365-2.058c-0.333-0.807-0.5-1.717-0.5-2.728
				c0-0.925,0.147-1.787,0.441-2.587c0.294-0.799,0.706-1.493,1.235-2.081s1.162-1.048,1.899-1.381s1.553-0.5,2.447-0.5
				c0.831,0,1.604,0.151,2.317,0.453s1.333,0.725,1.859,1.27c0.525,0.545,0.937,1.197,1.234,1.957
				c0.298,0.761,0.447,1.6,0.447,2.517v1.47H253.791z M256.423,135.125c-0.697,0-1.287,0.232-1.769,0.699
				c-0.482,0.466-0.763,1.028-0.841,1.687h5.077c-0.016-0.666-0.259-1.229-0.729-1.692S257.113,135.125,256.423,135.125z"/>
			<path fill="#2A78C4" d="M267.898,141.118c0.462,0.416,1.015,0.773,1.657,1.071c0.642,0.299,1.292,0.448,1.95,0.448
				c0.479,0,0.854-0.093,1.129-0.276c0.273-0.185,0.411-0.422,0.411-0.712c0-0.493-0.529-0.877-1.587-1.152l-0.916-0.246
				c-0.455-0.11-0.913-0.261-1.376-0.453c-0.462-0.191-0.887-0.444-1.274-0.758s-0.701-0.696-0.94-1.146
				c-0.239-0.451-0.358-1.006-0.358-1.664c0-0.524,0.115-1.024,0.347-1.499c0.23-0.474,0.56-0.892,0.987-1.252
				c0.427-0.36,0.946-0.646,1.557-0.858c0.611-0.212,1.293-0.317,2.045-0.317c1.074,0,2.031,0.169,2.874,0.506
				c0.842,0.337,1.506,0.717,1.992,1.141l-1.692,2.152c-0.399-0.29-0.872-0.539-1.416-0.747c-0.545-0.208-1.092-0.312-1.64-0.312
				c-0.51,0-0.905,0.093-1.188,0.278c-0.282,0.185-0.423,0.407-0.423,0.668c0,0.275,0.123,0.499,0.37,0.668
				c0.247,0.17,0.605,0.317,1.075,0.443l1.363,0.388c1.301,0.369,2.233,0.866,2.798,1.493c0.563,0.628,0.846,1.419,0.846,2.375
				c0,0.533-0.109,1.041-0.329,1.522c-0.22,0.482-0.541,0.911-0.964,1.288c-0.423,0.376-0.948,0.672-1.574,0.888
				c-0.627,0.215-1.34,0.323-2.14,0.323c-0.61,0-1.185-0.055-1.722-0.165c-0.536-0.109-1.034-0.261-1.492-0.452
				c-0.459-0.192-0.872-0.41-1.24-0.652c-0.368-0.243-0.682-0.486-0.94-0.729L267.898,141.118z"/>
			<path fill="#2A78C4" d="M284.472,149.115h-3.244V132.55h3.244v1.082c0.353-0.369,0.787-0.683,1.305-0.941
				c0.517-0.258,1.144-0.388,1.88-0.388c0.83,0,1.585,0.167,2.263,0.5s1.259,0.792,1.745,1.375c0.485,0.584,0.861,1.276,1.128,2.075
				c0.267,0.8,0.399,1.666,0.399,2.599s-0.137,1.799-0.411,2.599c-0.274,0.799-0.658,1.489-1.151,2.069
				c-0.494,0.58-1.086,1.034-1.774,1.363c-0.69,0.329-1.45,0.494-2.28,0.494c-0.368,0-0.703-0.033-1.005-0.101
				c-0.302-0.066-0.578-0.158-0.829-0.275c-0.25-0.118-0.481-0.257-0.693-0.418c-0.211-0.16-0.403-0.335-0.575-0.523V149.115z
				 M284.377,140.016c0,0.337,0.061,0.648,0.183,0.935c0.121,0.286,0.296,0.535,0.522,0.746c0.228,0.212,0.5,0.377,0.817,0.494
				c0.317,0.118,0.676,0.177,1.075,0.177c0.462,0,0.871-0.084,1.229-0.253c0.356-0.169,0.656-0.405,0.898-0.711
				c0.243-0.307,0.427-0.669,0.553-1.088c0.125-0.419,0.188-0.88,0.188-1.382v-0.152c0-0.502-0.062-0.964-0.188-1.388
				c-0.126-0.423-0.31-0.789-0.553-1.1c-0.242-0.31-0.542-0.55-0.898-0.723c-0.357-0.172-0.767-0.259-1.229-0.259
				c-0.399,0-0.758,0.059-1.075,0.177c-0.317,0.117-0.59,0.282-0.817,0.493c-0.227,0.212-0.401,0.463-0.522,0.753
				c-0.122,0.29-0.183,0.604-0.183,0.94V140.016z"/>
			<path fill="#2A78C4" d="M303.538,132.303c0.933,0,1.779,0.167,2.539,0.5s1.41,0.793,1.951,1.381
				c0.54,0.588,0.957,1.282,1.251,2.081c0.294,0.8,0.441,1.662,0.441,2.587c0,0.933-0.149,1.797-0.447,2.593
				c-0.298,0.795-0.717,1.483-1.257,2.063c-0.541,0.58-1.191,1.036-1.951,1.369s-1.603,0.5-2.527,0.5
				c-0.932,0-1.778-0.167-2.538-0.5s-1.41-0.789-1.951-1.369c-0.54-0.58-0.96-1.269-1.258-2.063
				c-0.298-0.796-0.446-1.66-0.446-2.593c0-0.925,0.147-1.787,0.44-2.587c0.294-0.799,0.712-1.493,1.252-2.081
				c0.541-0.588,1.193-1.048,1.957-1.381S302.606,132.303,303.538,132.303z M303.538,142.367c0.463,0,0.872-0.086,1.229-0.259
				s0.656-0.412,0.899-0.718c0.242-0.306,0.427-0.672,0.552-1.099c0.126-0.428,0.188-0.896,0.188-1.405v-0.082
				c0-0.51-0.062-0.978-0.188-1.405c-0.125-0.427-0.31-0.795-0.552-1.105c-0.243-0.31-0.543-0.55-0.899-0.723
				c-0.356-0.172-0.766-0.259-1.229-0.259c-0.462,0-0.871,0.087-1.228,0.259c-0.356,0.173-0.656,0.413-0.899,0.723
				c-0.243,0.311-0.427,0.679-0.552,1.105c-0.126,0.428-0.188,0.896-0.188,1.405v0.082c0,0.51,0.062,0.978,0.188,1.405
				c0.125,0.427,0.309,0.793,0.552,1.099s0.543,0.545,0.899,0.718S303.076,142.367,303.538,142.367z"/>
			<path fill="#2A78C4" d="M314.518,132.55h3.244v1.082c0.172-0.173,0.366-0.34,0.581-0.5c0.216-0.161,0.453-0.302,0.711-0.424
				c0.259-0.121,0.547-0.219,0.864-0.294c0.317-0.074,0.668-0.111,1.052-0.111c0.682,0,1.293,0.111,1.834,0.335
				c0.54,0.224,0.996,0.531,1.369,0.923c0.372,0.393,0.655,0.851,0.852,1.376s0.294,1.094,0.294,1.705v8.5h-3.244v-7.324
				c0-0.447-0.051-0.825-0.152-1.135s-0.241-0.561-0.417-0.753c-0.177-0.191-0.385-0.333-0.623-0.423
				c-0.239-0.09-0.5-0.136-0.781-0.136c-0.329,0-0.637,0.06-0.923,0.177s-0.535,0.296-0.746,0.535
				c-0.212,0.239-0.376,0.539-0.494,0.899c-0.117,0.36-0.176,0.783-0.176,1.27v6.89h-3.244V132.55z"/>
			<path fill="#2A78C4" d="M338.755,145.142v-1.082c-0.173,0.188-0.362,0.363-0.57,0.523c-0.207,0.161-0.438,0.3-0.693,0.418
				c-0.255,0.117-0.532,0.209-0.834,0.275c-0.302,0.067-0.637,0.101-1.005,0.101c-0.831,0-1.591-0.165-2.28-0.494
				s-1.281-0.783-1.774-1.363c-0.494-0.58-0.876-1.271-1.146-2.069c-0.27-0.8-0.405-1.666-0.405-2.599s0.134-1.799,0.399-2.599
				c0.267-0.799,0.641-1.491,1.123-2.075c0.481-0.583,1.063-1.042,1.745-1.375s1.438-0.5,2.269-0.5c0.736,0,1.361,0.128,1.874,0.382
				c0.513,0.255,0.946,0.57,1.299,0.947v-5.35h3.243v16.859H338.755z M338.849,137.676c0-0.337-0.061-0.65-0.182-0.94
				s-0.295-0.541-0.521-0.753c-0.228-0.211-0.499-0.376-0.815-0.493c-0.316-0.118-0.675-0.177-1.073-0.177
				c-0.461,0-0.869,0.087-1.226,0.259c-0.355,0.173-0.654,0.413-0.896,0.723c-0.243,0.311-0.427,0.677-0.552,1.1
				c-0.125,0.424-0.188,0.886-0.188,1.388v0.152c0,0.502,0.062,0.963,0.188,1.382s0.309,0.781,0.552,1.088
				c0.242,0.306,0.541,0.542,0.896,0.711c0.356,0.169,0.765,0.253,1.226,0.253c0.398,0,0.757-0.059,1.073-0.177
				c0.316-0.117,0.588-0.282,0.815-0.494c0.227-0.211,0.4-0.46,0.521-0.746s0.182-0.598,0.182-0.935V137.676z"/>
			<path fill="#2A78C4" d="M349.371,141.121c0.368,0,0.699,0.07,0.993,0.211c0.294,0.142,0.544,0.334,0.752,0.576
				c0.207,0.243,0.368,0.527,0.481,0.853c0.114,0.325,0.171,0.676,0.171,1.053c0,0.423-0.064,0.859-0.194,1.311
				c-0.129,0.45-0.349,0.87-0.658,1.258s-0.717,0.724-1.222,1.006c-0.506,0.281-1.135,0.466-1.887,0.552l-0.411-1.234l0.329-0.094
				c0.407-0.117,0.742-0.251,1.005-0.399c0.263-0.149,0.472-0.306,0.629-0.471c0.156-0.165,0.271-0.327,0.347-0.488
				c0.074-0.16,0.123-0.312,0.146-0.452c-0.086,0.078-0.195,0.135-0.329,0.17c-0.133,0.036-0.274,0.054-0.423,0.054
				c-0.251,0-0.487-0.042-0.711-0.124s-0.419-0.201-0.588-0.358c-0.168-0.156-0.304-0.353-0.405-0.588s-0.152-0.506-0.152-0.812
				c0-0.282,0.057-0.547,0.17-0.793c0.113-0.247,0.269-0.461,0.464-0.641c0.196-0.181,0.424-0.324,0.682-0.43
				C348.818,141.174,349.088,141.121,349.371,141.121z"/>
			<path fill="#2A78C4" d="M364.35,128.282h6.522c1.003,0,1.889,0.145,2.656,0.435s1.41,0.678,1.928,1.164
				c0.517,0.486,0.908,1.045,1.175,1.676s0.4,1.291,0.4,1.98c0,0.557-0.085,1.084-0.253,1.582c-0.169,0.497-0.399,0.948-0.693,1.352
				s-0.641,0.753-1.04,1.047c-0.399,0.293-0.831,0.522-1.293,0.688l3.69,6.937h-3.926l-3.056-6.066h-2.703v6.066h-3.408V128.282z
				 M373.47,133.655c0-0.337-0.061-0.651-0.182-0.941c-0.122-0.289-0.306-0.54-0.553-0.752s-0.555-0.376-0.923-0.494
				c-0.368-0.117-0.795-0.176-1.281-0.176h-2.773v4.75h2.773c0.486,0,0.913-0.061,1.281-0.183c0.368-0.121,0.676-0.29,0.923-0.506
				c0.247-0.215,0.431-0.468,0.553-0.758C373.41,134.306,373.47,133.992,373.47,133.655z"/>
			<path fill="#2A78C4" d="M384.344,139.969c0.055,0.378,0.175,0.725,0.359,1.039c0.185,0.315,0.418,0.585,0.7,0.81
				s0.608,0.399,0.978,0.525s0.762,0.188,1.178,0.188c0.479,0,0.996-0.092,1.554-0.276s1.067-0.453,1.531-0.807l1.562,2.271
				c-0.588,0.494-1.31,0.894-2.165,1.199c-0.854,0.306-1.765,0.459-2.729,0.459c-0.871,0-1.69-0.149-2.459-0.447
				s-1.441-0.729-2.018-1.293c-0.577-0.564-1.031-1.25-1.365-2.058c-0.333-0.807-0.5-1.717-0.5-2.728
				c0-0.925,0.147-1.787,0.441-2.587c0.294-0.799,0.706-1.493,1.235-2.081s1.162-1.048,1.899-1.381s1.553-0.5,2.447-0.5
				c0.831,0,1.604,0.151,2.317,0.453s1.333,0.725,1.859,1.27c0.525,0.545,0.937,1.197,1.234,1.957
				c0.298,0.761,0.447,1.6,0.447,2.517v1.47H384.344z M386.977,135.125c-0.697,0-1.287,0.232-1.769,0.699
				c-0.482,0.466-0.763,1.028-0.841,1.687h5.077c-0.016-0.666-0.259-1.229-0.729-1.692S387.667,135.125,386.977,135.125z"/>
			<path fill="#2A78C4" d="M401.906,132.55h2.409v2.821h-2.409v9.771h-3.244v-9.771h-1.998v-2.821h1.998v-1.54
				c0-0.549,0.095-1.025,0.282-1.429c0.188-0.403,0.448-0.736,0.782-0.999c0.332-0.263,0.732-0.459,1.198-0.588
				c0.466-0.13,0.981-0.194,1.546-0.194c0.281,0,0.556,0.008,0.822,0.023s0.513,0.031,0.74,0.047s0.429,0.035,0.605,0.059
				c0.176,0.024,0.312,0.04,0.405,0.048l-0.271,2.763c-0.094-0.016-0.209-0.031-0.347-0.047c-0.137-0.016-0.28-0.029-0.429-0.041
				s-0.294-0.02-0.435-0.024c-0.142-0.003-0.267-0.006-0.376-0.006c-0.463,0-0.792,0.089-0.987,0.265
				c-0.196,0.177-0.294,0.402-0.294,0.677V132.55z"/>
			<path fill="#2A78C4" d="M408.773,128.282h3.244v13.427c0,0.267,0.076,0.47,0.229,0.611c0.153,0.141,0.397,0.211,0.734,0.211
				c0.157,0,0.292-0.01,0.406-0.029c0.113-0.02,0.26-0.049,0.44-0.088l0.259,2.774c-0.22,0.031-0.455,0.062-0.705,0.094
				c-0.212,0.024-0.457,0.046-0.735,0.065s-0.565,0.029-0.863,0.029c-0.463,0-0.878-0.059-1.246-0.177
				c-0.368-0.117-0.684-0.292-0.946-0.523c-0.263-0.23-0.464-0.519-0.604-0.863c-0.142-0.346-0.212-0.745-0.212-1.199V128.282z"/>
			<path fill="#2A78C4" d="M421.234,139.969c0.055,0.378,0.175,0.725,0.359,1.039c0.185,0.315,0.418,0.585,0.7,0.81
				s0.608,0.399,0.978,0.525s0.762,0.188,1.178,0.188c0.479,0,0.996-0.092,1.554-0.276s1.067-0.453,1.531-0.807l1.562,2.271
				c-0.588,0.494-1.31,0.894-2.165,1.199c-0.854,0.306-1.765,0.459-2.729,0.459c-0.871,0-1.69-0.149-2.459-0.447
				s-1.441-0.729-2.018-1.293c-0.577-0.564-1.031-1.25-1.365-2.058c-0.333-0.807-0.5-1.717-0.5-2.728
				c0-0.925,0.147-1.787,0.441-2.587c0.294-0.799,0.706-1.493,1.235-2.081s1.162-1.048,1.899-1.381s1.553-0.5,2.447-0.5
				c0.831,0,1.604,0.151,2.317,0.453s1.333,0.725,1.859,1.27c0.525,0.545,0.937,1.197,1.234,1.957
				c0.298,0.761,0.447,1.6,0.447,2.517v1.47H421.234z M423.867,135.125c-0.697,0-1.287,0.232-1.769,0.699
				c-0.482,0.466-0.763,1.028-0.841,1.687h5.077c-0.016-0.666-0.259-1.229-0.729-1.692S424.556,135.125,423.867,135.125z"/>
			<path fill="#2A78C4" d="M437.138,138.91c0,0.408,0.055,0.817,0.165,1.229c0.109,0.412,0.277,0.782,0.505,1.111
				s0.519,0.598,0.876,0.806c0.356,0.207,0.781,0.312,1.274,0.312c0.321,0,0.613-0.043,0.876-0.13
				c0.263-0.086,0.497-0.205,0.705-0.358c0.207-0.152,0.392-0.333,0.553-0.541c0.16-0.207,0.3-0.433,0.417-0.676l2.844,1.47
				c-0.203,0.494-0.483,0.94-0.84,1.34c-0.356,0.4-0.771,0.741-1.24,1.023s-0.991,0.5-1.562,0.652
				c-0.572,0.153-1.18,0.229-1.822,0.229c-0.886,0-1.7-0.167-2.444-0.5s-1.387-0.789-1.928-1.369
				c-0.54-0.58-0.964-1.269-1.269-2.063c-0.306-0.796-0.459-1.66-0.459-2.593c0-0.925,0.153-1.787,0.459-2.587
				c0.305-0.799,0.729-1.493,1.269-2.081c0.541-0.588,1.184-1.048,1.928-1.381s1.559-0.5,2.444-0.5c0.643,0,1.25,0.076,1.822,0.229
				c0.571,0.152,1.093,0.372,1.562,0.658s0.884,0.629,1.24,1.028c0.356,0.4,0.637,0.847,0.84,1.341l-2.844,1.47
				c-0.117-0.243-0.257-0.469-0.417-0.676c-0.161-0.208-0.346-0.389-0.553-0.541c-0.208-0.153-0.442-0.274-0.705-0.364
				c-0.263-0.091-0.555-0.136-0.876-0.136c-0.493,0-0.918,0.104-1.274,0.312c-0.357,0.208-0.648,0.479-0.876,0.812
				s-0.396,0.707-0.505,1.123c-0.11,0.415-0.165,0.83-0.165,1.246V138.91z"/>
			<path fill="#2A78C4" d="M454.641,141.391c0,0.149,0.02,0.29,0.059,0.424c0.039,0.133,0.107,0.249,0.206,0.347
				c0.098,0.098,0.236,0.175,0.417,0.229c0.18,0.055,0.411,0.082,0.693,0.082c0.117,0,0.251-0.006,0.399-0.018
				s0.298-0.025,0.446-0.041c0.149-0.016,0.288-0.035,0.418-0.059c0.129-0.023,0.236-0.043,0.323-0.06l0.293,2.869
				c-0.306,0.039-0.622,0.074-0.951,0.105c-0.282,0.031-0.596,0.058-0.94,0.077s-0.693,0.029-1.046,0.029
				c-1.121,0-1.994-0.255-2.621-0.765c-0.627-0.509-0.94-1.32-0.94-2.434v-6.808h-2.268v-2.821h2.268v-3.562l3.244-0.87v4.433h3.303
				v2.821h-3.303V141.391z"/>
			<path fill="#2A78C4" d="M462.389,143.237c0-0.29,0.057-0.562,0.171-0.817c0.113-0.255,0.269-0.479,0.464-0.67
				c0.196-0.192,0.425-0.345,0.688-0.459c0.263-0.113,0.539-0.17,0.829-0.17c0.289,0,0.563,0.057,0.822,0.17
				c0.259,0.114,0.486,0.267,0.682,0.459c0.196,0.191,0.351,0.415,0.465,0.67c0.113,0.255,0.17,0.527,0.17,0.817
				c0,0.298-0.057,0.576-0.17,0.834c-0.114,0.259-0.269,0.486-0.465,0.683c-0.195,0.195-0.423,0.349-0.682,0.458
				c-0.259,0.11-0.533,0.165-0.822,0.165c-0.29,0-0.566-0.055-0.829-0.165c-0.263-0.109-0.491-0.263-0.688-0.458
				c-0.195-0.196-0.351-0.424-0.464-0.683C462.446,143.813,462.389,143.535,462.389,143.237z"/>
		</g>
	</g>
	<path fill="#133FA8" d="M83.273,88.56c0.269,1.874,0.865,3.593,1.778,5.153c0.913,1.558,2.077,2.897,3.473,4.011
		c1.406,1.112,3.014,1.978,4.847,2.601c1.828,0.627,3.777,0.938,5.836,0.938c2.374,0,4.944-0.455,7.707-1.368
		c2.765-0.913,5.295-2.249,7.589-3.996l7.75,11.255c-2.915,2.446-6.492,4.431-10.728,5.946c-4.244,1.517-8.755,2.274-13.538,2.274
		c-4.316,0-8.378-0.737-12.188-2.219c-3.811-1.472-7.144-3.61-10.001-6.408c-2.859-2.801-5.116-6.201-6.77-10.204
		c-1.652-4-2.478-8.51-2.478-13.522c0-4.589,0.727-8.86,2.185-12.826c1.46-3.962,3.502-7.399,6.122-10.317
		c2.625-2.915,5.767-5.195,9.426-6.846c3.651-1.653,7.694-2.48,12.128-2.48c4.124,0,7.953,0.751,11.493,2.246
		c3.538,1.491,6.609,3.59,9.214,6.291c2.604,2.704,4.646,5.939,6.124,9.708c1.477,3.769,2.219,7.927,2.219,12.479v7.286H83.273z
		 M96.327,64.54c-3.459,0-6.384,1.158-8.771,3.473c-2.391,2.312-3.777,5.099-4.168,8.361h25.173c-0.078-3.304-1.28-6.104-3.61-8.393
		C102.621,65.688,99.741,64.54,96.327,64.54z"/>
	<path fill="#133FA8" d="M137.1,94.258c2.291,2.06,5.032,3.831,8.22,5.312c3.182,1.478,6.408,2.219,9.668,2.219
		c2.369,0,4.232-0.455,5.595-1.368c1.363-0.913,2.042-2.088,2.042-3.524c0-2.453-2.622-4.354-7.867-5.719l-4.542-1.22
		c-2.256-0.548-4.53-1.295-6.821-2.246c-2.293-0.951-4.396-2.205-6.324-3.759c-1.922-1.557-3.478-3.452-4.661-5.685
		c-1.183-2.235-1.772-4.984-1.772-8.251c0-2.601,0.568-5.078,1.716-7.431c1.147-2.35,2.778-4.42,4.894-6.212
		c2.117-1.784,4.69-3.203,7.719-4.251c3.034-1.054,6.415-1.574,10.143-1.574c5.317,0,10.07,0.837,14.245,2.505
		c4.179,1.674,7.469,3.555,9.877,5.653l-8.393,10.68c-1.977-1.44-4.316-2.677-7.021-3.711c-2.701-1.026-5.409-1.543-8.127-1.543
		c-2.527,0-4.485,0.462-5.884,1.382c-1.398,0.912-2.098,2.021-2.098,3.311c0,1.364,0.613,2.467,1.836,3.311
		c1.223,0.837,3,1.571,5.332,2.198l6.761,1.922c6.444,1.826,11.065,4.289,13.865,7.407c2.796,3.104,4.194,7.031,4.194,11.771
		c0,2.643-0.541,5.157-1.629,7.552c-1.092,2.388-2.677,4.517-4.778,6.381c-2.096,1.867-4.703,3.331-7.81,4.402
		c-3.104,1.064-6.639,1.603-10.602,1.603c-3.03,0-5.879-0.27-8.539-0.816c-2.658-0.545-5.126-1.292-7.4-2.243
		c-2.269-0.954-4.32-2.032-6.145-3.235c-1.828-1.205-3.385-2.411-4.663-3.62L137.1,94.258z"/>
	<path fill="#133FA8" d="M200.545,88.56c0.275,1.874,0.864,3.593,1.781,5.153c0.914,1.558,2.07,2.897,3.473,4.011
		c1.398,1.112,3.018,1.978,4.844,2.601c1.831,0.627,3.775,0.938,5.841,0.938c2.372,0,4.942-0.455,7.705-1.368
		c2.767-0.913,5.295-2.249,7.586-3.996l7.755,11.255c-2.921,2.446-6.499,4.431-10.736,5.946c-4.237,1.517-8.745,2.274-13.534,2.274
		c-4.312,0-8.375-0.737-12.192-2.219c-3.807-1.472-7.142-3.61-10.001-6.408c-2.859-2.801-5.112-6.201-6.763-10.204
		c-1.657-4-2.48-8.51-2.48-13.522c0-4.589,0.729-8.86,2.184-12.826c1.461-3.962,3.5-7.399,6.129-10.317
		c2.624-2.915,5.763-5.195,9.416-6.846c3.658-1.653,7.703-2.48,12.136-2.48c4.118,0,7.949,0.751,11.487,2.246
		c3.538,1.491,6.609,3.59,9.217,6.291c2.608,2.704,4.649,5.939,6.124,9.708c1.479,3.769,2.217,7.927,2.217,12.479v7.286H200.545z
		 M213.595,64.54c-3.455,0-6.377,1.158-8.765,3.473c-2.396,2.312-3.782,5.099-4.168,8.361h25.173
		c-0.082-3.304-1.285-6.104-3.613-8.393C219.889,65.688,217.014,64.54,213.595,64.54z"/>
	<path fill="#133FA8" d="M284.674,108.32c-0.659,0.737-1.464,1.523-2.415,2.36c-0.958,0.833-2.081,1.595-3.383,2.271
		c-1.306,0.682-2.825,1.257-4.577,1.722c-1.745,0.469-3.708,0.7-5.882,0.7c-3.106,0-5.971-0.493-8.598-1.488
		c-2.62-0.992-4.921-2.381-6.9-4.166c-1.982-1.791-3.538-3.858-4.663-6.208c-1.125-2.353-1.693-4.905-1.693-7.665
		c0-5.013,1.556-9.115,4.663-12.303c3.111-3.183,7.401-5.188,12.881-6.001l17.947-2.625v-1.168c0-2.798-0.855-5.009-2.564-6.643
		c-1.714-1.633-4.491-2.449-8.334-2.449c-1.592,0-3.204,0.183-4.837,0.559c-1.631,0.361-3.197,0.781-4.688,1.247
		c-1.495,0.469-2.884,1.002-4.169,1.605c-1.278,0.603-2.406,1.137-3.376,1.602l-6.294-12.303c3.572-1.98,7.545-3.61,11.916-4.896
		c4.372-1.281,8.902-1.922,13.605-1.922c2.871,0,5.777,0.303,8.712,0.902c2.932,0.603,5.594,1.698,7.982,3.294
		c2.388,1.592,4.339,3.755,5.855,6.504c1.514,2.735,2.273,6.222,2.273,10.463v25.648c0,1.823,0.478,3.173,1.428,4.049
		c0.951,0.875,2.26,1.681,3.932,2.418l-7.286,11.545c-2.951-0.313-5.322-1.082-7.105-2.302
		C287.314,111.849,285.84,110.264,284.674,108.32z M270.072,88.849c-1.993,0.311-3.589,0.999-4.796,2.07
		c-1.207,1.068-1.811,2.516-1.811,4.345c0,2.019,0.737,3.759,2.219,5.213c1.481,1.457,3.664,2.184,6.546,2.184
		c3.04,0,5.437-0.871,7.193-2.618c1.748-1.747,2.63-4.059,2.63-6.938V86.81L270.072,88.849z"/>
	<path fill="#133FA8" d="M343.626,67.399h-1.688c-2.291,0-4.477,0.231-6.553,0.699c-2.08,0.462-3.918,1.313-5.51,2.536
		c-1.594,1.22-2.861,2.9-3.814,5.04c-0.951,2.14-1.426,4.871-1.426,8.22v30.313h-16.084V51.772h16.084v7.053
		c0.658-1.051,1.51-2.057,2.562-3.028c1.049-0.972,2.275-1.837,3.674-2.595c1.396-0.761,2.969-1.367,4.719-1.833
		c1.744-0.468,3.625-0.702,5.648-0.702h2.387V67.399z"/>
	<path fill="#133FA8" d="M364.011,83.31c0,2.021,0.27,4.055,0.816,6.091c0.545,2.043,1.383,3.879,2.51,5.509
		c1.123,1.633,2.572,2.966,4.336,3.996c1.771,1.033,3.877,1.543,6.322,1.543c1.592,0,3.039-0.213,4.342-0.641
		c1.305-0.431,2.469-1.02,3.496-1.781c1.029-0.754,1.943-1.65,2.742-2.677c0.793-1.03,1.48-2.149,2.066-3.352l14.102,7.286
		c-1.01,2.446-2.398,4.661-4.168,6.642c-1.766,1.984-3.814,3.673-6.146,5.071c-2.33,1.402-4.914,2.48-7.748,3.238
		c-2.84,0.755-5.85,1.138-9.033,1.138c-4.389,0-8.43-0.827-12.119-2.48c-3.691-1.65-6.877-3.918-9.559-6.791
		c-2.68-2.873-4.777-6.283-6.293-10.229c-1.516-3.947-2.271-8.227-2.271-12.854c0-4.589,0.756-8.86,2.271-12.826
		c1.516-3.962,3.613-7.399,6.293-10.317c2.682-2.915,5.867-5.195,9.559-6.846c3.689-1.653,7.73-2.48,12.119-2.48
		c3.184,0,6.193,0.379,9.033,1.137c2.834,0.755,5.418,1.847,7.748,3.266c2.332,1.413,4.381,3.114,6.146,5.103
		c1.77,1.978,3.158,4.196,4.168,6.643l-14.102,7.286c-0.586-1.206-1.273-2.325-2.066-3.349c-0.799-1.03-1.713-1.923-2.742-2.688
		c-1.027-0.754-2.191-1.354-3.496-1.802c-1.303-0.447-2.75-0.672-4.342-0.672c-2.445,0-4.551,0.514-6.322,1.544
		c-1.764,1.033-3.213,2.373-4.336,4.023c-1.127,1.653-1.965,3.507-2.51,5.567c-0.547,2.057-0.816,4.117-0.816,6.177V83.31z"/>
	<path fill="#133FA8" d="M411.666,30.616h16.078V57.13c0.857-0.851,1.818-1.675,2.891-2.47c1.064-0.796,2.238-1.496,3.523-2.099
		c1.281-0.606,2.711-1.089,4.281-1.457c1.572-0.369,3.309-0.555,5.217-0.555c3.379,0,6.408,0.555,9.092,1.66
		c2.676,1.109,4.939,2.64,6.787,4.575c1.846,1.939,3.252,4.221,4.223,6.825c0.973,2.601,1.457,5.419,1.457,8.45v42.147H449.13V77.89
		c0-2.215-0.248-4.089-0.754-5.626c-0.504-1.536-1.197-2.776-2.072-3.73c-0.871-0.951-1.9-1.65-3.086-2.098
		c-1.186-0.448-2.477-0.672-3.875-0.672c-1.633,0-3.152,0.292-4.572,0.878c-1.424,0.579-2.656,1.464-3.699,2.649
		c-1.055,1.186-1.865,2.674-2.451,4.458c-0.582,1.791-0.877,3.89-0.877,6.294v34.165h-16.078V30.616z"/>
	<linearGradient id="SVGID_1_" gradientUnits="userSpaceOnUse" x1="538.5" y1="0.5" x2="538.5" y2="144.7148">
		<stop  offset="0" style="stop-color:#13257E"/>
		<stop  offset="0.1961" style="stop-color:#133FA8"/>
		<stop  offset="0.7837" style="stop-color:#40B0DF"/>
		<stop  offset="1" style="stop-color:#56C9EF"/>
	</linearGradient>
	<path fill="url(#SVGID_1_)" d="M477.5,0.5v82.396c0,41.146,26.381,61.819,61.1,61.819c34.723,0,60.9-20.674,60.9-61.819V0.5H477.5z
		 M572.484,81.692c0,22.579-14.291,33.69-33.346,33.69s-33.348-10.994-33.348-33.573L505.676,30.5H524.5v49.588
		c0,12.481,5.719,16.678,14,16.678c8.275,0,14-4.196,14-16.678V30.5h20.098L572.484,81.692z"/>
	<path fill="#133FA8" d="M17.153,84.129H30.55l33.135,61.017h19.269L46.866,79.812c2.291-0.813,4.427-1.95,6.412-3.407
		c1.98-1.461,3.703-3.19,5.157-5.192c1.456-1.998,2.601-4.233,3.438-6.7c0.832-2.47,1.25-5.081,1.25-7.845
		c0-3.417-0.661-6.69-1.982-9.822c-1.318-3.124-3.261-5.895-5.828-8.302c-2.563-2.412-5.746-4.334-9.557-5.771
		c-3.807-1.44-8.196-2.157-13.164-2.157H0.25v83.592h16.903V84.129z M17.153,45.537h13.751c2.405,0,4.523,0.289,6.349,0.871
		c1.826,0.586,3.349,1.399,4.575,2.45c1.223,1.047,2.136,2.294,2.735,3.73c0.604,1.44,0.902,2.994,0.902,4.661
		c0,1.671-0.298,3.229-0.902,4.669c-0.6,1.439-1.512,2.69-2.735,3.758c-1.227,1.068-2.749,1.905-4.575,2.505
		c-1.826,0.603-3.944,0.902-6.349,0.902H17.153V45.537z"/>
</g>
</svg>
